<svg width="500" height="500" viewBox="0 0 500 500" fill="none" xmlns="http://www.w3.org/2000/svg">
<g clip-path="url(#clip0_7096_2763)">
<path d="M487.334 168.304C476.924 136.791 460.252 107.744 438.335 82.9368C405.439 45.7422 362.105 19.4947 314.073 7.67146C250.388 -8.03569 183.142 1.68507 126.408 34.7992C98.3332 51.1468 73.6307 72.7686 53.6395 98.4926C12.7919 150.715 -5.82854 217.132 1.86355 283.17C3.847 299.59 7.4741 315.766 12.6894 331.45C18.064 347.126 24.9205 362.245 33.1645 376.6C41.4793 390.878 51.1418 404.314 62.0178 416.722C72.9206 429.079 85.0315 440.296 98.1669 450.205C151.126 489.694 217.439 506.47 282.631 496.873C298.654 494.531 314.417 490.64 329.7 485.253C344.994 479.976 359.735 473.193 373.709 465.002C430.53 431.987 472.388 378.009 490.441 314.472C499.398 282.707 502.021 249.47 498.16 216.679C496.183 200.227 492.556 184.019 487.334 168.304ZM482.345 312.195C474.703 343.179 461.058 372.336 442.195 397.989C432.712 410.791 421.956 422.582 410.094 433.179C398.219 443.806 385.321 453.211 371.591 461.256C357.829 469.238 343.326 475.846 328.288 480.985C313.252 486.031 297.751 489.542 282.019 491.466C234.921 496.743 187.318 488.079 145.029 466.534C102.74 444.989 67.5971 411.496 43.8962 370.15C36.0404 356.587 29.499 342.293 24.3626 327.466C19.2267 312.601 15.5071 297.276 13.2543 281.7C3.90836 218.143 19.9734 153.446 57.9228 101.812C67.4326 89.0338 78.1864 77.2451 90.0239 66.6222C113.82 45.289 141.644 29.0132 171.83 18.7692C209.442 6.31751 249.53 3.4476 288.511 10.4159C327.493 17.3842 364.154 33.9736 395.22 58.7021C407.523 68.4125 418.872 79.2915 429.11 91.189C439.364 103.042 448.444 115.877 456.221 129.509C488.069 184.702 497.434 250.188 482.345 312.195Z" fill="white"/>
<path d="M342.596 42.3403C301.681 24.8906 256.635 19.7195 212.874 27.4484C198.402 29.9501 184.212 33.8899 170.511 39.2101C156.799 44.4067 143.62 50.9348 131.162 58.7023C118.684 66.5276 106.974 75.5318 96.1893 85.593C74.4248 105.694 56.7304 129.852 44.0838 156.732C31.4107 183.84 24.1956 213.209 22.8557 243.143C22.2284 258.149 23.1115 273.181 25.4916 288.008C27.9427 302.828 31.8045 317.376 37.0235 331.45C42.3936 345.481 49.1092 358.951 57.0749 371.668C65.061 384.354 74.3024 396.192 84.6574 407C115.904 438.978 155.73 461.076 199.255 470.586C242.78 480.097 288.113 476.607 329.699 460.545C334.406 458.79 339.113 456.893 343.349 454.853L341.231 450.775C336.901 452.814 332.523 454.664 328.052 456.418C314.588 461.491 300.669 465.239 286.49 467.611C272.32 469.932 257.952 470.79 243.61 470.172C207.995 468.378 173.348 457.876 142.662 439.574C111.976 421.272 86.1714 395.72 67.4772 365.123C52.6726 340.845 42.5333 313.977 37.5883 285.921C31.2359 250.518 33.5953 214.085 44.4599 179.813C55.3245 145.542 74.3629 114.477 99.9078 89.3396C110.229 79.2947 121.537 70.3325 133.656 62.5913C157.977 46.9897 185.207 36.5638 213.674 31.9539C227.843 29.6331 242.211 28.775 256.554 29.3929C285.158 30.7267 313.218 37.7545 339.113 50.0707C364.846 62.3253 387.964 79.5133 407.175 100.675C412.41 106.438 417.328 112.486 421.907 118.791L432.215 112.578C408.933 81.8153 378.115 57.6768 342.784 42.53L342.596 42.3403Z" fill="white"/>
<path d="M331.39 67.4285C307.536 57.283 281.968 51.8569 256.08 51.4458C217.227 50.893 179.022 61.5037 145.938 82.0357C134.95 88.8076 124.641 96.638 115.155 105.417C96.0079 123.094 80.4118 144.315 69.2154 167.925C52.1496 203.82 46.3533 244.106 52.6001 283.407C56.7286 309.6 66.1312 334.665 80.2296 357.06C101.384 390.685 132.271 416.956 168.719 432.326C192.651 442.487 218.299 447.913 244.265 448.308C257.123 448.519 269.97 447.471 282.627 445.178C295.313 442.971 307.753 439.508 319.764 434.839C323.483 433.464 327.154 431.899 330.778 430.097L328.896 426.208C325.365 427.82 321.835 429.338 318.258 430.95C306.457 435.398 294.256 438.686 281.826 440.768C269.381 442.783 256.764 443.514 244.171 442.949C219.116 441.772 194.548 435.547 171.92 424.643C149.501 413.826 129.351 398.772 112.566 380.299C104.223 371.135 96.7824 361.176 90.3495 350.563C77.4213 329.365 68.5599 305.91 64.2261 281.416C62.1308 269.154 61.1853 256.721 61.402 244.281C61.769 219.228 66.9145 194.481 76.5582 171.387C91.1562 136.242 116.093 106.448 148.009 86.0195C169.326 72.2853 193.211 63.101 218.189 59.034C230.635 57.0186 243.252 56.2877 255.844 56.8524C280.895 58.0298 305.459 64.2377 328.095 75.1115C350.522 85.9372 370.672 101.008 387.449 119.502C391.356 123.771 395.028 128.181 398.464 132.782L408.772 126.569C404.536 121.399 400.299 116.372 395.592 111.63C377.338 92.7215 355.507 77.6917 331.39 67.4285Z" fill="white"/>
<path d="M255.42 186.136C257.687 187.282 260.181 187.899 262.716 187.938C267.4 187.936 271.969 186.478 275.801 183.765C279.706 181.175 282.742 177.455 284.509 173.094C285.401 170.688 285.754 168.113 285.545 165.553C285.289 162.905 284.383 160.362 282.909 158.155C281.4 155.975 279.4 154.187 277.072 152.938C274.789 151.791 272.28 151.175 269.729 151.136C265.037 151.227 260.475 152.705 256.609 155.386C252.743 158.068 249.744 161.834 247.984 166.217C247.076 168.625 246.757 171.218 247.052 173.776C247.347 176.335 248.247 178.785 249.678 180.919C251.124 183.12 253.099 184.915 255.42 186.136ZM254.856 161.996C255.636 160.324 256.837 158.885 258.339 157.823C259.876 156.822 261.643 156.234 263.469 156.115C265.238 156.043 266.998 156.401 268.6 157.159C270.043 157.874 271.362 158.819 272.507 159.957C273.55 160.989 274.495 162.116 275.331 163.324C276.15 164.547 276.844 165.85 277.402 167.213C278.013 168.728 278.394 170.327 278.531 171.956C278.637 173.73 278.314 175.504 277.59 177.125C276.834 178.812 275.629 180.255 274.109 181.293C272.588 182.331 270.811 182.924 268.976 183.006C267.187 183.08 265.409 182.705 263.799 181.915C262.348 181.214 261.026 180.267 259.892 179.117C258.824 178.109 257.876 176.979 257.068 175.75C256.222 174.544 255.526 173.238 254.997 171.861C254.363 170.354 253.982 168.751 253.867 167.118C253.782 165.356 254.122 163.599 254.856 161.996Z" fill="white"/>
<path d="M280.226 412.359C280.226 384.852 279.52 357.297 277.073 329.838L276.555 324.194C276.555 322.297 276.178 320.447 275.943 318.55L274.625 307.358L273.213 296.118L272.366 290.521L271.189 284.783C270.53 281.084 269.965 277.337 269.212 273.638L266.953 262.54C265.211 255.189 263.517 247.838 261.446 240.582C253.563 211.293 241.682 183.249 226.144 157.254C218.288 144.276 209.477 131.911 199.785 120.261C195.078 114.428 189.948 108.737 184.912 103.14C179.875 97.5441 174.839 92.2324 170.273 86.731L162.789 96.2162C167.496 100.959 172.579 105.701 177.38 110.444C180.016 113.005 182.605 115.661 185.147 118.317C187.689 120.973 190.372 123.534 192.772 126.474C197.479 131.928 202.186 137.572 206.893 143.453C209.199 146.346 211.27 149.381 213.388 152.369C215.506 155.357 217.436 158.487 219.366 161.854C227.121 174.384 233.843 187.533 239.465 201.17C245.063 214.84 249.78 228.86 253.585 243.143C257.38 257.46 260.381 271.979 262.576 286.632L263.423 292.134L263.799 297.446L265.211 308.496L266.247 319.594C266.247 321.443 266.623 323.293 266.718 325.142L267.094 330.691C269 360.08 269 389.563 267.094 418.952L280.226 412.359Z" fill="white"/>
<path d="M299.997 173.806C300.794 172.693 301.659 171.632 302.586 170.628L305.222 167.545L307.858 164.415L310.87 161.475L316.613 155.641L322.731 150.187L325.838 147.484C326.874 146.63 327.956 145.824 329.039 145.018L335.581 140.038L337.229 138.805L338.923 137.714L342.359 135.485L349.231 130.743L348.525 129.747L341.371 133.92L337.841 136.054L336.052 137.098C335.44 137.477 334.922 137.856 334.358 138.283L327.533 143.026C326.403 143.832 325.226 144.591 324.144 145.445L320.896 148.053L314.447 153.317L308.375 159.009L305.363 161.854L302.492 164.937L299.668 167.972C298.726 169.015 297.738 170.011 296.891 171.102C289.678 179.634 283.368 188.901 278.063 198.752C276.651 201.17 275.474 203.494 274.25 206.245C273.027 208.996 271.944 211.415 270.814 213.976C270.297 215.303 269.826 216.631 269.355 217.959C268.884 219.287 268.367 220.615 267.943 221.991C267.519 223.366 267.096 224.694 266.719 226.069C266.343 227.445 265.966 228.82 265.637 230.385L272.556 231.571C272.556 230.432 273.027 229.057 273.309 227.777C273.591 226.496 273.968 225.216 274.297 223.935C274.627 222.655 275.051 221.327 275.474 220.094C275.898 218.86 276.274 217.532 276.745 216.252C277.686 213.738 278.534 211.177 279.663 208.711C280.793 206.245 281.781 203.731 283.052 201.36C287.732 191.606 293.412 182.371 299.997 173.806Z" fill="white"/>
<path d="M249.678 301.003C249.678 302.331 249.678 303.658 249.396 304.986C249.114 307.595 248.925 310.251 248.502 312.859C248.078 315.468 247.702 318.123 247.137 320.732C246.572 323.34 246.054 325.949 245.348 328.51C244.642 331.071 244.077 333.727 243.136 336.24C242.194 338.754 241.535 341.315 240.594 343.828L237.393 351.18C236.923 352.46 236.311 353.646 235.746 354.831L234.004 358.483L232.263 362.088C231.651 363.273 230.945 364.459 230.333 365.597L226.379 372.616L221.908 379.635L219.695 383.003C218.942 384.093 218.048 385.137 217.248 386.18L212.541 392.583L211.082 393.863L209.717 395.333L207.034 398.369L201.668 404.534L202.845 405.72L208.54 399.886L211.364 396.993L212.823 395.523L214.141 393.958L219.366 387.698C220.26 386.607 221.155 385.611 222.002 384.52L224.402 381.2L229.109 374.561L233.44 367.589C234.146 366.403 234.899 365.265 235.558 364.079L237.488 360.428L239.417 356.776C240.029 355.543 240.735 354.357 241.253 353.077L244.972 345.583C246.007 343.022 246.901 340.414 247.89 337.853C248.878 335.292 249.631 332.588 250.479 329.98C251.326 327.372 251.985 324.668 252.644 321.965C253.303 319.262 253.868 316.606 254.385 313.855C254.903 311.104 255.28 308.401 255.703 305.65C255.703 304.275 255.986 302.852 256.174 301.477C256.362 300.102 256.409 298.679 256.456 297.303C256.503 295.928 256.456 294.505 256.456 293.082C256.456 291.66 256.456 290.284 256.456 288.719L249.396 289.525C249.396 290.664 249.396 292.039 249.396 293.32C249.396 294.6 249.396 295.928 249.396 297.256C249.396 298.584 249.678 299.675 249.678 301.003Z" fill="white"/>
</g>
<defs>
<clipPath id="clip0_7096_2763">
<rect width="500" height="500" fill="white"/>
</clipPath>
</defs>
</svg>
